<svg width="104" height="12" viewBox="0 0 104 12" fill="none" xmlns="http://www.w3.org/2000/svg">
<path d="M0 6C0 2.68629 2.68629 0 6 0V2L5.79395 2.00488C3.68056 2.11211 2 3.85996 2 6C2 8.20914 3.79086 10 6 10H98C100.209 10 102 8.20914 102 6C102 3.85996 100.319 2.11212 98.2061 2.00488L98 2V0C101.314 1.1597e-06 104 2.68629 104 6C104 9.31371 101.314 12 98 12H6C2.68629 12 0 9.31371 0 6ZM98 0V2H6V0H98Z" fill="#C6A16C"/>
<path d="M1 6C1 3.23858 3.23858 1 6 1V2L5.79395 2.00488C3.68056 2.11211 2 3.85996 2 6C2 8.20914 3.79086 10 6 10H98C100.209 10 102 8.20914 102 6C102 3.85996 100.319 2.11212 98.2061 2.00488L98 2V1C100.761 1 103 3.23858 103 6C103 8.76142 100.761 11 98 11H6C3.23858 11 1 8.76142 1 6ZM98 1V2H6V1H98Z" fill="#7E5B33"/>
</svg>
