<svg width="3124" height="512" viewBox="0 0 3124 512" fill="none" xmlns="http://www.w3.org/2000/svg">
<g clip-path="url(#clip0_46_522)">
<path d="M181.716 291.647L153.235 319.487L163.659 357.522L202.569 367.711L231.051 339.871L220.626 301.837L181.716 291.647ZM231.782 412.811C223.557 420.85 211.569 423.988 200.333 421.046L138.314 404.803C127.077 401.86 118.301 393.281 115.29 382.297L98.672 321.673C95.6622 310.691 98.8729 298.972 107.097 290.932L152.499 246.552C160.724 238.512 172.713 235.374 183.948 238.316L245.968 254.56L248.044 255.175C258.279 258.583 266.169 266.768 268.992 277.066L285.609 337.689C288.619 348.672 285.408 360.391 277.184 368.431L231.782 412.811Z" fill="url(#paint0_linear_46_522)"/>
<path d="M250.227 502.679C242.001 510.719 230.014 513.858 218.777 510.915L65.2677 470.711C54.0317 467.768 45.255 459.188 42.244 448.205L1.11021 298.146C-1.90007 287.163 1.31062 275.445 9.53564 267.404L259.318 23.243C269.722 13.0736 286.59 13.0736 296.994 23.243C307.397 33.4126 307.397 49.9008 296.994 60.0705L55.6731 295.96L90.6094 423.425L221.013 457.58L256.44 422.95C266.844 412.781 283.712 412.782 294.116 422.95C304.519 433.12 304.519 449.608 294.116 459.777L250.227 502.679Z" fill="url(#paint1_linear_46_522)"/>
<path d="M485.479 241.63C488.054 244.135 490.098 247.112 491.492 250.39C492.886 253.668 493.604 257.183 493.604 260.732C493.604 264.281 492.886 267.796 491.492 271.074C490.098 274.352 488.054 277.329 485.479 279.834L374.983 387.704C369.793 392.77 362.755 395.616 355.416 395.616C348.077 395.616 341.038 392.77 335.849 387.704C330.659 382.637 327.744 375.766 327.744 368.602C327.744 361.437 330.659 354.566 335.849 349.5L446.345 241.63C448.911 239.116 451.961 237.121 455.319 235.76C458.676 234.399 462.276 233.698 465.912 233.698C469.548 233.698 473.148 234.399 476.505 235.76C479.863 237.121 482.913 239.116 485.479 241.63ZM402.607 196.684C405.182 199.19 407.226 202.167 408.62 205.445C410.014 208.723 410.732 212.237 410.732 215.786C410.732 219.336 410.014 222.85 408.62 226.128C407.226 229.406 405.182 232.383 402.607 234.888L356.567 279.834C351.377 284.9 344.339 287.746 337 287.746C329.661 287.746 322.622 284.9 317.433 279.834C312.243 274.768 309.328 267.897 309.328 260.732C309.328 253.567 312.243 246.696 317.433 241.63L363.473 196.684C366.039 194.17 369.089 192.175 372.447 190.814C375.804 189.453 379.404 188.753 383.04 188.753C386.676 188.753 390.276 189.453 393.633 190.814C396.991 192.175 400.041 194.17 402.607 196.684ZM503.895 136.008L467.063 171.964C461.873 177.03 454.835 179.876 447.496 179.876C440.157 179.876 433.118 177.03 427.929 171.964C422.739 166.898 419.824 160.027 419.824 152.862C419.824 145.698 422.739 138.826 427.929 133.76L464.761 97.8037C469.951 92.7376 476.989 89.8914 484.328 89.8914C491.667 89.8914 498.706 92.7376 503.895 97.8037C509.085 102.87 512 109.741 512 116.906C512 124.07 509.085 130.941 503.895 136.008ZM243.769 169.717L409.513 7.91228C414.702 2.84613 421.741 -9.24578e-08 429.08 0C436.419 9.24578e-08 443.457 2.84613 448.647 7.91228C453.836 12.9784 456.752 19.8496 456.752 27.0142C456.752 34.1788 453.836 41.05 448.647 46.1161L282.903 207.921C280.333 210.429 277.283 212.419 273.925 213.777C270.568 215.134 266.97 215.833 263.336 215.833C259.702 215.833 256.103 215.134 252.746 213.777C249.389 212.419 246.338 210.429 243.769 207.921C241.199 205.412 239.161 202.434 237.77 199.157C236.38 195.879 235.664 192.366 235.664 188.819C235.664 185.271 236.38 181.758 237.77 178.481C239.161 175.203 241.199 172.225 243.769 169.717Z" fill="url(#paint2_linear_46_522)"/>
<path d="M3041.2 148.884C3035.68 148.884 3031.2 153.361 3031.2 158.884V404.805C3031.2 410.328 3026.72 414.805 3021.2 414.805H2971.83C2966.31 414.805 2961.83 410.328 2961.83 404.805V158.884C2961.83 153.361 2957.35 148.884 2951.83 148.884H2878.87C2873.35 148.884 2868.87 144.407 2868.87 138.884V102C2868.87 96.4771 2873.35 92 2878.87 92H3114.16C3119.68 92 3124.16 96.4772 3124.16 102V138.884C3124.16 144.407 3119.68 148.884 3114.16 148.884H3041.2Z" fill="#E1E0E8"/>
<path d="M2638.46 414.805C2632.94 414.805 2628.46 410.328 2628.46 404.805V102C2628.46 96.4771 2632.94 92 2638.46 92H2824.72C2830.25 92 2834.72 96.4772 2834.72 102V138.884C2834.72 144.407 2830.25 148.884 2824.72 148.884H2707.83C2702.31 148.884 2697.83 153.361 2697.83 158.884V212.879C2697.83 218.402 2702.31 222.879 2707.83 222.879H2820.1C2825.62 222.879 2830.1 227.357 2830.1 232.879V269.763C2830.1 275.286 2825.62 279.763 2820.1 279.763H2707.83C2702.31 279.763 2697.83 284.241 2697.83 289.763V347.921C2697.83 353.444 2702.31 357.921 2707.83 357.921H2824.72C2830.25 357.921 2834.72 362.398 2834.72 367.921V404.805C2834.72 410.328 2830.25 414.805 2824.72 414.805H2638.46Z" fill="#E1E0E8"/>
<path d="M2395.73 414.805C2390.21 414.805 2385.73 410.328 2385.73 404.805V102C2385.73 96.4771 2390.21 92 2395.73 92H2445.57C2451.09 92 2455.57 96.4772 2455.57 102V347.921C2455.57 353.444 2460.05 357.921 2465.57 357.921H2584.31C2589.83 357.921 2594.31 362.398 2594.31 367.921V404.805C2594.31 410.328 2589.83 414.805 2584.31 414.805H2395.73Z" fill="#E1E0E8"/>
<path d="M2153.01 414.805C2147.49 414.805 2143.01 410.328 2143.01 404.805V102C2143.01 96.4771 2147.49 92 2153.01 92H2202.84C2208.37 92 2212.84 96.4772 2212.84 102V347.921C2212.84 353.444 2217.32 357.921 2222.84 357.921H2341.58C2347.11 357.921 2351.58 362.398 2351.58 367.921V404.805C2351.58 410.328 2347.11 414.805 2341.58 414.805H2153.01Z" fill="#E1E0E8"/>
<path d="M2042.58 414.805C2038.03 414.805 2034.06 411.738 2032.91 407.339L2016.47 344.576C2015.32 340.178 2011.34 337.11 2006.8 337.11H1933.94C1929.38 337.11 1925.39 340.205 1924.26 344.63L1908.22 407.285C1907.09 411.71 1903.1 414.805 1898.53 414.805H1849.07C1842.48 414.805 1837.69 408.549 1839.42 402.192L1921.41 99.3864C1922.59 95.0271 1926.54 92 1931.06 92H2013.8C2018.32 92 2022.27 95.0271 2023.45 99.3864L2105.44 402.192C2107.16 408.549 2102.38 414.805 2095.79 414.805H2042.58ZM1972.89 160.85C1972.62 159.795 1971.67 159.058 1970.58 159.058C1969.49 159.058 1968.54 159.795 1968.27 160.85L1940.5 268.657C1938.87 274.985 1943.65 281.151 1950.18 281.151H1990.98C1997.51 281.151 2002.29 274.985 2000.66 268.657L1972.89 160.85Z" fill="#E1E0E8"/>
<path d="M1640.89 414.805C1635.37 414.805 1630.89 410.328 1630.89 404.805V102C1630.89 96.4771 1635.37 92 1640.89 92H1755.76C1771.48 92 1785.51 94.4665 1797.84 99.3995C1810.18 104.024 1820.5 110.807 1828.83 119.748C1837.46 128.689 1843.94 139.48 1848.25 152.121C1852.57 164.762 1854.73 178.945 1854.73 194.669C1854.73 210.393 1852.57 224.575 1848.25 237.216C1843.94 249.857 1837.46 260.648 1828.83 269.589C1820.5 278.53 1810.18 285.467 1797.84 290.4C1785.51 295.025 1771.48 297.337 1755.76 297.337H1710.72C1705.2 297.337 1700.72 301.815 1700.72 307.337V404.805C1700.72 410.328 1696.25 414.805 1690.72 414.805H1640.89ZM1700.72 231.378C1700.72 236.901 1705.2 241.378 1710.72 241.378H1738.18C1754.52 241.378 1765.78 238.295 1771.94 232.129C1778.42 225.963 1781.66 215.788 1781.66 201.606V187.732C1781.66 173.549 1778.42 163.375 1771.94 157.208C1765.78 151.042 1754.52 147.959 1738.18 147.959H1710.72C1705.2 147.959 1700.72 152.436 1700.72 157.959V231.378Z" fill="#E1E0E8"/>
<path d="M1424.75 285.737C1419.23 285.737 1414.75 281.26 1414.75 275.737V230.066C1414.75 224.543 1419.23 220.066 1424.75 220.066H1552.74C1558.26 220.066 1562.74 224.543 1562.74 230.066V275.737C1562.74 281.26 1558.26 285.737 1552.74 285.737H1424.75Z" fill="#E1E0E8"/>
<path d="M1331.64 148.884C1326.12 148.884 1321.64 153.361 1321.64 158.884V404.805C1321.64 410.328 1317.16 414.805 1311.64 414.805H1262.27C1256.75 414.805 1252.27 410.328 1252.27 404.805V158.884C1252.27 153.361 1247.79 148.884 1242.27 148.884H1169.31C1163.79 148.884 1159.31 144.407 1159.31 138.884V102C1159.31 96.4771 1163.79 92 1169.31 92H1404.6C1410.12 92 1414.6 96.4772 1414.6 102V138.884C1414.6 144.407 1410.12 148.884 1404.6 148.884H1331.64Z" fill="#E1E0E8"/>
<path d="M928.9 414.805C923.377 414.805 918.9 410.328 918.9 404.805V102C918.9 96.4771 923.377 92 928.9 92H1115.16C1120.69 92 1125.16 96.4772 1125.16 102V138.884C1125.16 144.407 1120.69 148.884 1115.16 148.884H998.271C992.748 148.884 988.271 153.361 988.271 158.884V212.879C988.271 218.402 992.748 222.879 998.271 222.879H1110.54C1116.06 222.879 1120.54 227.357 1120.54 232.879V269.763C1120.54 275.286 1116.06 279.763 1110.54 279.763H998.271C992.748 279.763 988.271 284.241 988.271 289.763V347.921C988.271 353.444 992.748 357.921 998.271 357.921H1115.16C1120.69 357.921 1125.16 362.398 1125.16 367.921V404.805C1125.16 410.328 1120.69 414.805 1115.16 414.805H928.9Z" fill="#E1E0E8"/>
<path d="M874.749 92C880.272 92 884.749 96.4772 884.749 102V324.623C884.749 339.114 882.128 352.372 876.887 364.396C871.954 376.112 864.709 386.132 855.151 394.457C845.902 402.781 834.648 409.256 821.39 413.88C808.133 418.197 793.334 420.355 776.993 420.355C744.004 420.355 718.413 412.185 700.223 395.844C684.52 381.224 673.809 362.681 668.092 340.215C666.749 334.937 670.271 329.763 675.608 328.673L721.62 319.276C727.129 318.151 732.417 321.812 733.949 327.222C736.608 336.608 740.473 344.529 745.545 350.984C752.636 359.617 763.119 363.933 776.993 363.933C788.709 363.933 797.804 360.234 804.279 352.834C811.062 345.126 814.453 333.41 814.453 317.686V158.884C814.453 153.361 809.976 148.884 804.453 148.884H718.085C712.562 148.884 708.085 144.407 708.085 138.884V102C708.085 96.4771 712.562 92 718.085 92H874.749Z" fill="#E1E0E8"/>
</g>
<defs>
<linearGradient id="paint0_linear_46_522" x1="0" y1="512" x2="512" y2="0" gradientUnits="userSpaceOnUse">
<stop offset="0.124863" stop-color="#FF79C6"/>
<stop offset="0.677456" stop-color="#BD93F9"/>
</linearGradient>
<linearGradient id="paint1_linear_46_522" x1="0" y1="512" x2="512" y2="0" gradientUnits="userSpaceOnUse">
<stop offset="0.124863" stop-color="#FF79C6"/>
<stop offset="0.677456" stop-color="#BD93F9"/>
</linearGradient>
<linearGradient id="paint2_linear_46_522" x1="0" y1="512" x2="512" y2="0" gradientUnits="userSpaceOnUse">
<stop offset="0.124863" stop-color="#FF79C6"/>
<stop offset="0.677456" stop-color="#BD93F9"/>
</linearGradient>
<clipPath id="clip0_46_522">
<rect width="3124" height="512" fill="white"/>
</clipPath>
</defs>
</svg>
